<?xml version="1.0" encoding="UTF-8" standalone="no" ?>
<!DOCTYPE svg PUBLIC "-//W3C//DTD SVG 1.1//EN" "http://www.w3.org/Graphics/SVG/1.1/DTD/svg11.dtd">
<svg xmlns="http://www.w3.org/2000/svg" xmlns:xlink="http://www.w3.org/1999/xlink" version="1.1" width="640" height="164.3969" viewBox="0 0 640 164.3969" xml:space="preserve">
<desc>Created with Fabric.js 5.3.0</desc>
<defs>
<style>
#text { fill: #000000 }
@media (prefers-color-scheme: dark) { #text { fill: #f2f2f2 } }
</style>
</defs>
<g transform="matrix(20.78342562 0 0 20.783426043 417.9914475275 82.19845)" id="text">
<path style="stroke: none; stroke-width: 0; stroke-dasharray: none; stroke-linecap: butt; stroke-dashoffset: 0; stroke-linejoin: miter; stroke-miterlimit: 4; fill-rule: nonzero; opacity: 1;"  transform=" translate(-183.4, -245.491)" d="M 179.13 247.052 Q 179.13 247.472 179.249 247.668 Q 179.368 247.864 179.634 247.962 L 179.634 247.962 L 179.172 249.404 Q 178.486 249.348 178.052 249.103 Q 177.618 248.858 177.38 248.326 L 177.38 248.326 Q 176.652 249.446 175.14 249.446 L 175.14 249.446 Q 174.034 249.446 173.376 248.802 Q 172.718 248.158 172.718 247.122 L 172.718 247.122 Q 172.718 245.904 173.614 245.26 Q 174.51 244.616 176.204 244.616 L 176.204 244.616 L 176.96 244.616 L 176.96 244.294 Q 176.96 243.636 176.68 243.391 Q 176.4 243.146 175.7 243.146 L 175.7 243.146 Q 175.336 243.146 174.818 243.251 Q 174.3 243.356 173.754 243.538 L 173.754 243.538 L 173.25 242.082 Q 173.95 241.816 174.685 241.676 Q 175.42 241.536 176.05 241.536 L 176.05 241.536 Q 177.646 241.536 178.388 242.194 Q 179.13 242.852 179.13 244.168 L 179.13 244.168 L 179.13 247.052 Z M 175.784 247.864 Q 176.54 247.864 176.96 247.15 L 176.96 247.15 L 176.96 245.834 L 176.414 245.834 Q 175.658 245.834 175.287 246.1 Q 174.916 246.366 174.916 246.926 L 174.916 246.926 Q 174.916 247.374 175.147 247.619 Q 175.378 247.864 175.784 247.864 L 175.784 247.864 Z M 184.114 241.536 Q 184.884 241.536 185.5 241.76 Q 186.116 241.984 186.662 242.446 L 186.662 242.446 L 185.71 243.762 Q 185.01 243.23 184.296 243.23 L 184.296 243.23 Q 183.554 243.23 183.176 243.776 Q 182.798 244.322 182.798 245.54 L 182.798 245.54 Q 182.798 246.716 183.176 247.206 Q 183.554 247.696 184.268 247.696 L 184.268 247.696 Q 184.646 247.696 184.954 247.577 Q 185.262 247.458 185.696 247.192 L 185.696 247.192 L 186.662 248.564 Q 185.556 249.446 184.156 249.446 L 184.156 249.446 Q 183.022 249.446 182.196 248.963 Q 181.37 248.48 180.922 247.605 Q 180.474 246.73 180.474 245.554 L 180.474 245.554 Q 180.474 244.378 180.922 243.468 Q 181.37 242.558 182.196 242.047 Q 183.022 241.536 184.114 241.536 L 184.114 241.536 Z M 194.082 245.344 Q 194.082 245.806 194.04 246.142 L 194.04 246.142 L 189.434 246.142 Q 189.546 247.08 189.966 247.458 Q 190.386 247.836 191.128 247.836 L 191.128 247.836 Q 191.576 247.836 191.996 247.675 Q 192.416 247.514 192.906 247.178 L 192.906 247.178 L 193.816 248.41 Q 192.514 249.446 190.918 249.446 L 190.918 249.446 Q 189.112 249.446 188.146 248.382 Q 187.18 247.318 187.18 245.526 L 187.18 245.526 Q 187.18 244.392 187.586 243.489 Q 187.992 242.586 188.776 242.061 Q 189.56 241.536 190.652 241.536 L 190.652 241.536 Q 192.262 241.536 193.172 242.544 Q 194.082 243.552 194.082 245.344 L 194.082 245.344 Z M 191.912 244.812 L 191.912 244.714 Q 191.884 243.006 190.708 243.006 L 190.708 243.006 Q 190.134 243.006 189.819 243.426 Q 189.504 243.846 189.434 244.812 L 189.434 244.812 L 191.912 244.812 Z" stroke-linecap="round" />
</g>
<g transform="matrix(2.3054805248 0 0 2.3054805279 92.2192209913 82.19845)">
<path style="stroke: none; stroke-width: 0; stroke-dasharray: none; stroke-linecap: butt; stroke-dashoffset: 0; stroke-linejoin: miter; stroke-miterlimit: 4; fill: rgb(255,0,14); fill-rule: nonzero; opacity: 1;"  transform=" translate(0, 0)" d="M 20 -35.6535 C 31 -35.6535 40 -26.0265 40 -14.261500000000002 C 40 18.4505 0 34.7625 0 35.653499999999994 L 0 35.653499999999994 C 0 34.76349999999999 -40 18.540499999999994 -40 -14.261500000000005 C -40 -26.115500000000004 -31 -35.65350000000001 -20 -35.65350000000001 C -8.9 -35.65350000000001 0 -29.164500000000007 0 -17.310500000000008 C 0 -29.164500000000007 8.9 -35.65350000000001 20 -35.65350000000001 z" stroke-linecap="round" />
</g>
</svg>